<svg xmlns="http://www.w3.org/2000/svg" role="img" xmlns:xlink="http://www.w3.org/1999/xlink" viewBox="39.77 235.77 531.96 308.46"><rect x="0" y="0" width="200%" height="200%" fill="#ffffff"/> <defs><symbol overflow="visible"><path d="M1.5 0v-9h9v9zm.75-.75h7.5v-7.5h-7.5zm0 0"/></symbol><symbol id="a" overflow="visible"><path d="M8.96875 0H6.29687L3.875-3.20313h-.79688V0H.90625v-8.71875h3.5c.48828 0 .91016.03125 1.26563.09375.36328.05469.6953.17969 1 .375.3125.19922.55468.45313.73437.76563.1875.30468.28125.6875.28125 1.15625 0 .66796-.15234 1.21093-.45313 1.625-.29296.41796-.6953.75-1.20312 1zM5.4375-6.04688c0-.21875-.04297-.40625-.125-.5625-.08594-.16406-.21875-.28906-.40625-.375-.14844-.0625-.30469-.09765-.46875-.10937-.16797-.01953-.375-.03125-.625-.03125h-.73438v2.35938h.625c.3125 0 .57032-.01563.78125-.04688.21875-.03906.39844-.125.54688-.25.13281-.11328.23438-.24219.29688-.39063.0703-.15625.10937-.35156.10937-.59375zm0 0"/></symbol><symbol id="b" overflow="visible"><path d="M6.90625 0H1.14062v-1.53125h1.84376v-4.60938H1.14063V-7.5625c.26953 0 .53515-.01563.79687-.04688.26953-.03906.48438-.09765.64063-.17187.1875-.09375.33203-.21875.4375-.375.10156-.15625.16406-.35156.1875-.59375h1.90625v7.21875h1.79687zm0 0"/></symbol><symbol id="c" overflow="visible"><path d="M7.1875-4.35938c0 .75-.0625 1.41407-.1875 1.98438-.11719.5625-.3086 1.03125-.57813 1.40625-.26171.375-.60546.66406-1.03125.85938-.42968.1953-.94921.29687-1.5625.29687-.61718 0-1.13671-.10156-1.5625-.29688-.42968-.1953-.77734-.48828-1.04687-.875-.26172-.375-.45313-.84374-.57813-1.40624-.125-.5625-.1875-1.21875-.1875-1.96875 0-.76954.0547-1.42579.17188-1.96875.125-.55079.32813-1.02344.60938-1.42188.26953-.38281.61718-.67188 1.04687-.85938.4375-.1953.95313-.29687 1.54688-.29687.625 0 1.14453.10156 1.5625.29688.42578.19921.76953.49609 1.03125.89062.26953.375.46093.84375.57812 1.40625.125.5625.1875 1.21484.1875 1.95313zm-2.20313 0c0-1.08203-.08984-1.84375-.26562-2.28125-.17969-.4375-.47656-.65625-.89063-.65625-.42968 0-.73046.21875-.90625.65625-.17968.4375-.26562 1.19922-.26562 2.28125 0 1.0625.08594 1.82032.26563 2.26563.17578.4375.47656.65625.90625.65625.41406 0 .71093-.21875.89062-.65625.17578-.44531.26563-1.20313.26563-2.26563zm0 0"/></symbol><symbol id="d" overflow="visible"><path d="M8.54688 0H5.90625L3.51562-3.54688l-.42187.59375V0H.90625v-8.71875h2.1875v3.85938l2.79688-3.85938h2.53125L5.3125-4.67187zm0 0"/></symbol><symbol id="e" overflow="visible"><path d="M8.375 0H6.26562L2.90625-6.07813V0h-2v-8.71875h2.6875L6.375-3.73437v-4.98438h2zm0 0"/></symbol><symbol id="f" overflow="visible"><path d="M7.39063-2.03125H6.21875v2.0625H4.10937v-2.0625H.26563v-1.625l3.76563-5.0625h2.1875v5.10938h1.17188zM4.10938-3.60938v-2.96875L1.89063-3.60938zm0 0"/></symbol><symbol id="g" overflow="visible"><path d="M7.26563-2.4375c0 .375-.07813.72656-.23438 1.04688-.14844.32421-.3711.60546-.67188.84374C6.06642-.3164 5.70704-.1328 5.28125 0c-.42969.13281-.91797.20313-1.46875.20313C3.22656.20313 2.71094.1328 2.26562 0c-.4375-.13281-.79687-.3164-1.07812-.54688-.28125-.22656-.49219-.5-.625-.8125-.125-.3125-.1875-.64453-.1875-1 0-.5.13281-.91406.40625-1.25.28125-.33203.67969-.60937 1.20313-.82812v-.03125c-.51172-.25-.8711-.55078-1.07813-.90625-.19922-.35156-.29688-.75-.29688-1.1875 0-.32031.06641-.625.20313-.90625.14453-.28125.35938-.53516.64063-.76563.2578-.20703.59374-.375 1-.5.41406-.125.875-.1875 1.375-.1875.53906 0 1.0078.0586 1.40625.17188.40625.11719.73828.26563 1 .45313.2578.1875.45703.41796.59375.6875.14453.27343.21875.5703.21875.89062 0 .41797-.1211.79297-.35938 1.125-.24219.33594-.60938.60938-1.10938.82813v.04687c.58204.23047 1.00782.53906 1.28125.92188.26954.375.40625.82812.40625 1.35937zM4.92188-6.46875c0-.28906-.10157-.52344-.29688-.70313-.1875-.17578-.44922-.26562-.78125-.26562-.32422 0-.58594.07813-.78125.23438-.19922.15625-.29688.35546-.29688.59375 0 .23046.0547.41796.17188.5625.125.14843.3125.27734.5625.39062.10156.0625.22656.125.375.1875.15625.05469.35938.125.60938.21875.15625-.19531.26562-.39063.32812-.57813.07031-.1875.10938-.39843.10938-.64062zm.1875 4.125c0-.28125-.0625-.49219-.1875-.64063-.1172-.15625-.3711-.33203-.76563-.53125-.11719-.05078-.28125-.11718-.5-.20312-.21094-.08203-.39844-.15625-.5625-.21875-.15625.14844-.29297.33594-.40625.5625-.11719.21875-.17188.46484-.17188.73438 0 .40625.125.73437.375.98437.25782.24219.60157.35938 1.03125.35938.10157 0 .22657-.01563.375-.04688.15625-.03906.28516-.10156.39063-.1875.125-.09375.22266-.19531.29688-.3125.08203-.125.125-.28906.125-.5zm0 0"/></symbol><symbol id="h" overflow="visible"><path d="M8.70313-4.35938c0 .8125-.1836 1.54297-.54688 2.1875-.35547.64844-.80469 1.14063-1.34375 1.48438-.44922.29297-.94531.48047-1.48438.5625C4.79688-.03906 4.23438 0 3.64063 0H.90625v-8.71875h2.70313c.61328 0 1.1875.04297 1.71875.125.53906.07422 1.04687.25781 1.51562.54688.57031.375 1.02344.875 1.35938 1.5.33203.61718.5 1.34375.5 2.1875zm-2.25-.01562c0-.57031-.10157-1.0625-.29688-1.46875-.19922-.40625-.50781-.72266-.92188-.95313-.29296-.16406-.60546-.2539-.9375-.26562-.32421-.01953-.71093-.03125-1.15625-.03125h-.04687v5.45313h.04688c.48828 0 .89843-.00391 1.23437-.01563.34375-.01953.66406-.125.96875-.3125.36328-.22656.64063-.53906.82813-.9375.1875-.40625.28125-.89453.28125-1.46875zm0 0"/></symbol><symbol id="i" overflow="visible"><path d="M7.29688 0H.89063v-1.42188c.53906-.42578 1.02343-.83203 1.45312-1.21874.4375-.38282.8164-.75 1.14063-1.09375.42578-.44532.73437-.83594.92187-1.17188.19531-.34375.29688-.69531.29688-1.0625 0-.40625-.125-.71094-.375-.92188-.2422-.21875-.57422-.32812-1-.32812-.23047 0-.44532.02734-.64063.07813-.19922.05468-.39844.12109-.59375.20312-.19922.09375-.3711.1875-.51563.28125-.13671.09375-.24218.16406-.3125.20313h-.17187v-1.89063c.25-.125.63281-.24219 1.15625-.35938.51953-.125 1.02344-.1875 1.51563-.1875 1.03125 0 1.8125.23047 2.34375.6875.53906.46094.8125 1.10547.8125 1.9375 0 .52344-.125 1.03125-.375 1.53125-.2422.4922-.64063 1.01563-1.20313 1.57813-.35547.35547-.69922.66797-1.03125.9375-.32422.27344-.5625.46484-.71875.57813h3.70313zm0 0"/></symbol><symbol id="j" overflow="visible"><path d="M7.07813-2.64063c0 .4297-.07813.82032-.23438 1.17188-.15625.34375-.39063.64063-.70313.89063-.30468.24218-.66406.42968-1.07812.5625-.41797.1328-.92188.20312-1.51563.20312-.6875 0-1.27734-.0586-1.76562-.17188C1.30078-.09766.91015-.22656.60937-.375v-1.89063H.8125c.32031.21094.69531.38672 1.125.53125.4375.14844.83203.21876 1.1875.21876.20703 0 .4375-.01563.6875-.04688.25-.03906.45703-.125.625-.25.13281-.09375.23828-.21094.3125-.35938.08203-.14453.125-.34765.125-.60937 0-.25781-.0586-.45703-.17188-.59375-.11718-.13281-.26562-.23438-.45312-.29688-.1875-.0703-.41406-.10937-.67188-.10937-.26171-.00781-.49218-.01563-.6875-.01563h-.375v-1.53125h.34375c.26954 0 .51563-.0078.73438-.03125.21875-.03125.40625-.08203.5625-.15625.15625-.0703.27344-.17187.35938-.29687.09375-.13281.14062-.3164.14062-.54688 0-.17578-.04297-.3164-.125-.42187-.08594-.11328-.1836-.20313-.29688-.26563-.14843-.0703-.3125-.11718-.5-.14062-.1875-.01953-.34375-.03125-.46875-.03125-.21875 0-.4453.02734-.67187.07813-.21875.04296-.4336.10546-.64063.1875-.16796.0625-.33984.14843-.51562.25-.17969.09375-.3125.16796-.40625.21875H.85937v-1.875c.30079-.125.70704-.2422 1.21876-.35938.5078-.125 1.03125-.1875 1.5625-.1875.5078 0 .95703.04688 1.34375.14063.3828.08593.70703.21484.96875.39062.30078.17969.52343.41406.67187.70313.14453.28125.21875.60156.21875.95312 0 .49219-.14844.92188-.4375 1.29688-.28125.375-.65625.62109-1.125.73437v.07813c.20703.03125.41016.08593.60938.15625.1953.07421.39062.1953.57812.35937.17578.15625.32031.35547.4375.59375.11328.24219.17188.52734.17188.85938zm0 0"/></symbol><symbol id="k" overflow="visible"><path d="M6.73438 0H.90625v-8.71875h2.1875v7.04688h3.64063zm0 0"/></symbol><symbol id="l" overflow="visible"><path d="M.90625 0v-8.71875h5.89063v1.65625H3.07813v1.53125h3.4375V-3.875h-3.4375v2.20313h3.71875V0zm0 0"/></symbol><symbol id="m" overflow="visible"><path d="M7.73438 2.01563H-.09375V.84374h7.82813zm0 0"/></symbol><symbol id="n" overflow="visible"><path d="M8.1875-8.71875L5.1875 0H2.90625l-3-8.71875H2.1875L4.07813-2.8125l1.90625-5.90625zm0 0"/></symbol><symbol id="o" overflow="visible"><path d="M7.09375-2.95313c0 .44922-.07813.8711-.23438 1.26563-.14843.38672-.375.71875-.6875 1-.30468.27344-.66796.48438-1.09375.64063-.41796.15624-.93359.23437-1.54687.23437C2.88281.17578 2.32812.11719 1.85937.01562 1.39064-.08593 1.00392-.20702.70314-.34375V-2.25h.20312c.10156.0625.22266.13672.35938.21875.14453.07422.32812.15234.54687.23438.20703.08593.41406.15234.625.20312.21875.05469.45703.07813.71875.07813.22656 0 .47266-.02344.73438-.07813.2578-.0625.46875-.16406.625-.3125.11328-.11328.20312-.24219.26562-.39063.07031-.14453.10938-.33593.10938-.57812 0-.20703-.04297-.38281-.125-.53125-.08594-.14453-.19532-.25781-.32813-.34375C4.23828-3.88281 4-3.96875 3.71875-4c-.28125-.03906-.52734-.0625-.73438-.0625-.3125 0-.625.02734-.9375.07813-.30468.04296-.5625.09375-.78125.15625h-.1875v-4.89063h5.78125v1.64063H3.14063V-5.625c.125-.00781.26563-.01563.42188-.01563.16406-.0078.28906-.01562.375-.01562.42578 0 .8164.04297 1.17188.125.35156.08594.66406.21484.9375.39063.33203.21875.58593.51171.76562.875.1875.35546.28125.79296.28125 1.3125zm0 0"/></symbol><symbol id="p" overflow="visible"><path d="M8.84375 2.3125c-.24219.05078-.48047.09375-.71875.125-.23047.03125-.60156.04688-1.10938.04688-.46093 0-.85156-.0586-1.17187-.17188-.32422-.11719-.58984-.28125-.79688-.5-.21875-.21094-.38671-.45313-.5-.73438C4.44142.79689 4.38281.48828 4.375.15626 3.13281.10156 2.16016-.32031 1.45312-1.125.7422-1.92578.39063-3.0039.39063-4.35938c0-1.40625.375-2.51562 1.125-3.32812S3.30079-8.90625 4.625-8.90625c1.3125 0 2.34375.40625 3.09375 1.21875s1.125 1.92188 1.125 3.32813c0 1.03125-.21484 1.91796-.64063 2.65625-.42968.73046-1.03125 1.25-1.8125 1.5625.00782.42578.10157.71874.28125.875.1875.16406.50782.25.96875.25.17579 0 .35938-.02735.54688-.07813C8.38281.85156 8.53125.80078 8.625.75h.21875zM6-2.15625c.1875-.25.33203-.53906.4375-.875.10156-.34375.15625-.78516.15625-1.32813 0-.51953-.0586-.96093-.17188-1.32812-.10546-.36328-.24609-.66406-.42187-.90625-.1875-.23828-.40234-.41016-.64063-.51563-.24218-.10156-.48437-.15625-.73437-.15625-.27344 0-.51563.0547-.73438.15625-.21875.09375-.42968.26172-.625.5-.1875.23047-.33984.53125-.45312.90625-.10547.375-.15625.82422-.15625 1.34375 0 .53125.05078.97657.15625 1.32813.10156.35547.25.65234.4375.89063.1875.24218.39844.41406.64063.51562.23828.10547.48437.15625.73437.15625.25781 0 .50781-.05078.75-.15625.23828-.11328.44531-.28906.625-.53125zm0 0"/></symbol><symbol id="q" overflow="visible"><path d="M7.875-2.67188c0 .4375-.08594.82422-.25 1.15625-.15625.32422-.375.58985-.65625.79688-.32422.26172-.6836.44922-1.07813.5625C5.4922-.05078 4.9922 0 4.39063 0H.90625v-8.71875h3.07813c.64453 0 1.1289.02734 1.45312.07813.33203.04296.64453.14062.9375.29687.3125.16797.53906.39063.6875.67188.15625.28125.23438.60546.23438.96875 0 .42968-.10938.80859-.32813 1.14062-.21094.33594-.5.57813-.875.73438v.04687c.53906.11719.97266.35156 1.29688.70313.3203.34375.48437.8125.48437 1.40625zM5.07812-6.26563c0-.1328-.03906-.27343-.10937-.42187-.07422-.15625-.1875-.26563-.34375-.32813-.14844-.0625-.32031-.09375-.51563-.09375-.1875-.0078-.48046-.01562-.875-.01562h-.15625v1.84375h1.0625c.15625-.00781.3125-.05469.46875-.14063.17579-.0703.29688-.17968.35938-.32812.07031-.14453.10938-.3164.10938-.51563zM5.625-2.71875c0-.26953-.0586-.47656-.17188-.625-.10546-.15625-.26562-.26953-.48437-.34375-.13672-.05078-.32031-.07813-.54688-.07813-.23046-.0078-.54296-.01562-.9375-.01562h-.40625v2.1875h.125c.57032 0 .96875-.0039 1.1875-.01563.21875-.0078.4375-.0625.65625-.15624.19532-.09376.34375-.21876.4375-.375.09375-.16407.14063-.35938.14063-.57813zm0 0"/></symbol><symbol id="r" overflow="visible"><path d="M4.67188.17188c-1.3125 0-2.35547-.39454-3.125-1.1875C.77343-1.8047.39061-2.92189.39061-4.35938c0-1.375.38282-2.47266 1.15626-3.29688.76953-.82031 1.8125-1.23438 3.125-1.23438.34375 0 .65625.02344.9375.0625.28125.03125.54687.08594.79687.15625.19531.0625.41016.14844.64063.25.23828.09375.42968.1797.57812.25v2.07813h-.21875C7.30078-6.1875 7.16406-6.29688 7-6.42188c-.15625-.1328-.33984-.26562-.54688-.39062-.19921-.125-.42187-.22656-.67187-.3125-.24219-.09375-.4961-.14063-.76563-.14063-.3125 0-.60546.0547-.875.15625-.26171.09375-.5078.26563-.73437.51563-.21875.21875-.40234.52344-.54688.90625-.13671.375-.20312.82422-.20312 1.34375 0 .54297.07031 1 .21875 1.375.14453.36719.33203.65625.5625.875.22656.21875.48438.38281.76563.48438.28125.09374.55468.14062.82812.14062.28906 0 .5664-.04688.82813-.14063.2578-.09374.47656-.1953.65625-.3125.1953-.125.36718-.25.51562-.375.15625-.125.28516-.23437.39063-.32812H7.625v2.04688c-.15625.07421-.34375.15624-.5625.25-.21094.09375-.42188.17968-.64063.25-.28125.08203-.54296.14453-.78125.1875-.23046.03906-.55468.0625-.96875.0625zm0 0"/></symbol><symbol id="s" overflow="visible"><path d="M7.10938-6.98438L3.39063 0H.95313l3.89062-7.07813H.6875v-1.64062h6.42188zm0 0"/></symbol><symbol id="t" overflow="visible"><path d="M4.53125-3.03125H.64062v-1.64063h3.89063zm0 0"/></symbol><symbol id="u" overflow="visible"><path d="M7.625-5.96875c0 .40625-.07031.79297-.20313 1.15625-.125.36719-.30859.67188-.54687.92188-.15625.15625-.32422.29687-.5.42187-.17969.125-.3711.23438-.57813.32813-.21875.09375-.45312.16796-.70312.21875-.25.04296-.53125.0625-.84375.0625H3.09375V0H.90625v-8.71875h3.39063c.5 0 .92968.04688 1.29687.14063.36328.08593.69531.22656 1 .42187.32031.21875.57031.51172.75.875.1875.36719.28125.80469.28125 1.3125zm-2.25.04688c0-.23829-.0625-.44532-.1875-.625-.11719-.1875-.25781-.3125-.42188-.375-.21093-.09375-.40625-.14454-.59375-.15625-.1875-.00782-.4453-.01563-.76562-.01563h-.3125v2.60938h.73438c.1875-.00782.34765-.02344.48437-.04688.11328-.01953.23438-.05469.35938-.10938.1328-.0625.23828-.125.3125-.1875.14453-.14453.24218-.29687.29687-.45312.0625-.15625.09375-.36719.09375-.64063zm0 0"/></symbol><symbol id="v" overflow="visible"><path d="M3.59375.15625c-.66797 0-1.25781-.0625-1.76563-.1875-.5-.13281-.96874-.29688-1.40624-.48438v-2.07812H.625c.4375.375.91406.66406 1.4375.85938.53125.19921 1.04688.29687 1.54688.29687.125 0 .28515-.00781.48437-.03125.20703-.03125.375-.07813.5-.14063.15625-.0625.28516-.14843.39063-.26562.10156-.125.15625-.28516.15625-.48438 0-.21875-.08985-.39453-.26563-.53125-.16797-.1328-.3711-.23437-.60938-.29687-.29296-.08203-.60937-.15625-.95312-.21875-.33594-.07031-.64844-.16016-.9375-.26563-.67969-.23828-1.16406-.55468-1.45313-.95312-.29296-.40625-.4375-.91016-.4375-1.51563 0-.8125.34375-1.47265 1.03126-1.98437.6953-.50781 1.5625-.76563 2.59375-.76563.51953 0 1.03515.0586 1.54687.17188.50781.10547.96875.2461 1.375.42188v1.98437h-.1875c-.32422-.26953-.71875-.5-1.1875-.6875-.46875-.19531-.94922-.29688-1.4375-.29688-.1875 0-.35938.01563-.51563.04688-.15625.02344-.3203.07422-.48437.15625-.13672.0625-.25781.15625-.35938.28125-.09375.11719-.14062.25-.14062.40625 0 .21875.07813.39844.23438.53125.15625.13672.46093.25781.92187.35938.28906.0625.57031.125.84375.1875.26953.0625.5625.15234.875.26562.60156.21875 1.05078.51172 1.34375.875.30078.36719.45313.85547.45313 1.46875 0 .86719-.34375 1.5625-1.03125 2.09375-.6797.52344-1.60157.78125-2.76563.78125zm0 0"/></symbol><symbol id="w" overflow="visible"><path d="M4.4375.1875c-1.17969 0-2.08594-.28125-2.71875-.84375-.625-.57031-.9375-1.40625-.9375-2.5v-5.5625h2.1875v5.4375c0 .60547.11328 1.0586.34375 1.35938.22656.29296.60156.4375 1.125.4375.5 0 .86328-.14063 1.09375-.42188.23828-.28906.35938-.75.35938-1.375v-5.4375h2.20312v5.5625c0 1.07422-.3125 1.90234-.9375 2.48438C6.53906-.09767 5.63281.1875 4.4375.1875zm0 0"/></symbol><symbol id="x" overflow="visible"><path d="M8.26563 0h-2.1875v-3.875H3.09375V0H.90625v-8.71875h2.1875v3.1875h2.98438v-3.1875h2.1875zm0 0"/></symbol><symbol id="y" overflow="visible"><path d="M9.8125 0H7.64062v-5.78125L6.04688-2.04687h-1.5L2.96875-5.78125V0H.90625v-8.71875h2.51563l1.9375 4.29688 1.9375-4.29688H9.8125zm0 0"/></symbol><symbol id="z" overflow="visible"><path d="M5.25 0H.54687v-1.53125H1.8125v-5.67188H.54687v-1.51562H5.25v1.51563H4v5.67187h1.25zm0 0"/></symbol><symbol id="A" overflow="visible"><path d="M8.84375-4.35938c0 1.40625-.375 2.51563-1.125 3.32813S5.9375.1875 4.625.1875c-1.32422 0-2.35938-.41016-3.10938-1.23438-.75-.8203-1.125-1.92578-1.125-3.3125 0-1.40625.375-2.51562 1.125-3.32812S3.30079-8.90625 4.625-8.90625c1.3125 0 2.34375.40625 3.09375 1.21875s1.125 1.92188 1.125 3.32813zm-2.25 0c0-.51953-.0586-.96093-.17188-1.32812-.10546-.36328-.24609-.66406-.42187-.90625-.1875-.23828-.40234-.41016-.64063-.51563-.24218-.10156-.48437-.15625-.73437-.15625-.27344 0-.51563.0547-.73438.15625-.21875.09375-.42968.26172-.625.5-.1875.23047-.33984.53125-.45312.90625-.10547.375-.15625.82422-.15625 1.34375 0 .53125.05078.97657.15625 1.32813.10156.35547.25.65234.4375.89063.1875.24218.39844.41406.64063.51562.23828.10547.48437.15625.73437.15625.25781 0 .50781-.05078.75-.15625.23828-.11328.44531-.28906.625-.53125.1875-.25.33203-.53906.4375-.875.10156-.34375.15625-.78516.15625-1.32813zm0 0"/></symbol><symbol id="B" overflow="visible"><path d="M2.57813 0v-7.0625H0v-1.65625h7.34375v1.65625H4.76562V0zm0 0"/></symbol><symbol id="C" overflow="visible"><path d="M2.90625 0H.84375v-2.29688h2.0625zm0 0"/></symbol><symbol id="D" overflow="visible"><path d="M3.3125.125c-.84375 0-1.46094-.17188-1.84375-.51563-.375-.34375-.5625-.90624-.5625-1.6875v-3.07812H.125v-1.42188h.78125v-1.89062h2.04688v1.89063H4.9375v1.42187H2.95312v2.95313c.00782.16796.04688.3203.10938.45312.05078.13672.14453.2461.28125.32813.14453.07421.34766.10937.60938.10937.11328 0 .2578-.01953.4375-.0625.17578-.05078.30078-.09375.375-.125h.17187v1.4375C4.70703 0 4.46875.04688 4.21875.07813c-.25.03124-.55469.04687-.90625.04687zm0 0"/></symbol><symbol id="E" overflow="visible"><path d="M5.20313-4.64063h-.17188c-.07422-.03125-.1875-.05078-.34375-.0625-.14844-.0078-.3086-.01562-.48438-.01562-.21875 0-.44921.03125-.6875.09375-.23046.0625-.45312.13672-.67187.21875V0H.78125v-6.57813h2.0625v.9375c.09375-.08203.21875-.1875.375-.3125.16406-.1328.32031-.24218.46875-.32812.14453-.08203.3164-.15625.51563-.21875.1953-.07031.3828-.10938.5625-.10938.0625 0 .1328.00782.21875.01563.08203 0 .15625.00781.21875.01563zm0 0"/></symbol><symbol id="F" overflow="visible"><path d="M4.40625-1.71875v-1.375c-.34375.04297-.625.07813-.84375.10938-.21094.02343-.41797.0703-.625.14062-.17969.0625-.32031.15625-.42188.28125-.09375.125-.14062.29297-.14062.5 0 .3125.07813.52734.23438.64063.16406.11718.41406.17187.75.17187.17578 0 .35937-.03906.54687-.125.1875-.08203.35156-.19531.5-.34375zm0 1.01563c-.13672.125-.26172.23437-.375.32812-.10547.09375-.25.1875-.4375.28125-.1875.08594-.3711.14453-.54688.1875-.16796.05078-.40625.07813-.71875.07813-.58593 0-1.0703-.19141-1.45312-.57813C.48828-.80078.29687-1.29688.29687-1.89063c0-.48828.09375-.8789.28125-1.17187.19532-.30078.48438-.53906.85938-.71875.36328-.1875.80078-.3125 1.3125-.375.51953-.07031 1.07813-.1289 1.67188-.17188v-.03125c0-.36328-.13672-.61328-.40625-.75-.26172-.14453-.66407-.21875-1.20313-.21875-.24219 0-.52344.04688-.84375.14063-.32422.08594-.64063.19531-.95313.32813H.84376V-6.4375c.20703-.0625.53516-.1289.98438-.20313.45703-.08203.91406-.125 1.375-.125 1.1328 0 1.95703.1875 2.46875.5625.51953.375.78125.94922.78125 1.71875V0H4.40625zm0 0"/></symbol><symbol id="G" overflow="visible"><path d="M6.95313 0h-2.0625v-3.26563c0-.2578-.01172-.51953-.03125-.78125-.02344-.26953-.0625-.46875-.125-.59375-.07422-.14453-.1797-.25-.3125-.3125-.125-.0703-.3047-.10937-.53125-.10937-.16797 0-.33985.03125-.51563.09375-.16797.0625-.34375.16406-.53125.29688V0H.78125v-6.57813h2.0625v.71875c.33203-.28125.65625-.5.96875-.65625.32031-.16406.67578-.25 1.0625-.25.67578 0 1.1914.21485 1.54688.64063.35156.42969.53125 1.04297.53125 1.84375zm0 0"/></symbol></defs><path fill="none" stroke="#000" stroke-linecap="round" stroke-linejoin="round" stroke-miterlimit="10" stroke-width=".375" d="M209.39844 483.48047v4.07812"/><path d="M209.39844 487.5586h.1211v.12109h-.1211zm0 0"/><path fill="none" stroke="#000" stroke-linecap="round" stroke-linejoin="round" stroke-miterlimit="10" stroke-width=".375" d="M201 479.28125l8.39844 4.19922"/><path d="M209.39844 483.48047h.1211v.1211h-.1211zm0 0"/><path fill="none" stroke="#000" stroke-linecap="round" stroke-linejoin="round" stroke-miterlimit="10" stroke-width=".375" d="M217.67969 471L201 479.28125"/><path d="M201 479.28125h.1211v.11719H201zm0 0"/><path fill="none" stroke="#000" stroke-linecap="round" stroke-linejoin="round" stroke-miterlimit="10" stroke-width=".375" d="M201 462.71875L217.67969 471"/><path d="M217.67969 471h.1211v.1211h-.1211zm0 0"/><path fill="none" stroke="#000" stroke-linecap="round" stroke-linejoin="round" stroke-miterlimit="10" stroke-width=".375" d="M217.67969 454.4414L201 462.71876"/><path d="M201 462.71875h.1211v.1211H201zm0 0"/><path fill="none" stroke="#000" stroke-linecap="round" stroke-linejoin="round" stroke-miterlimit="10" stroke-width=".375" d="M209.39844 446.03906v4.19922"/><path d="M209.39844 450.23828h.1211v.1211h-.1211zm0 0"/><path fill="none" stroke="#000" stroke-linecap="round" stroke-linejoin="round" stroke-miterlimit="10" stroke-width=".375" d="M209.39844 450.23828l8.28125 4.20313"/><path d="M217.67969 454.4414h.1211v.1172h-.1211zm0 0"/><use x="219.72" y="463.32" xlink:href="#a"/><use x="228.438" y="463.32" xlink:href="#b"/><use x="219.72" y="482.04" xlink:href="#b"/><use x="227.365" y="482.04" xlink:href="#c"/><use x="235.01" y="482.04" xlink:href="#c"/><use x="242.655" y="482.04" xlink:href="#d"/><path fill="none" stroke="#000" stroke-linecap="round" stroke-linejoin="round" stroke-miterlimit="10" stroke-width=".375" d="M101.39844 360.96094h16.5625"/><path d="M117.96094 360.96094h.11719v.11719h-.1172zm0 0"/><path fill="none" stroke="#000" stroke-linecap="round" stroke-linejoin="round" stroke-miterlimit="10" stroke-width=".375" d="M101.39844 348.48047h16.5625"/><path d="M117.96094 348.48047h.11719v.1211h-.1172zm0 0"/><path fill="none" stroke="#000" stroke-linecap="round" stroke-linejoin="round" stroke-miterlimit="10" stroke-width=".375" d="M117.96094 348.48047l-8.28125 12.48047"/><path d="M109.67969 360.96094h.1211v.11719h-.1211zm0 0"/><path fill="none" stroke="#000" stroke-linecap="round" stroke-linejoin="round" stroke-miterlimit="10" stroke-width=".375" d="M101.39844 348.48047l8.28125 12.48047"/><path d="M109.67969 360.96094h.1211v.11719h-.1211zm0 0"/><path fill="none" stroke="#000" stroke-linecap="round" stroke-linejoin="round" stroke-miterlimit="10" stroke-width=".375" d="M109.67969 338.03906v10.4414"/><path d="M109.67969 348.48047h.1211v.1211h-.1211zm0 0"/><path fill="none" stroke="#000" stroke-linecap="round" stroke-linejoin="round" stroke-miterlimit="10" stroke-width=".375" d="M109.67969 360.96094v10.32031"/><path d="M109.67969 371.28125h.1211v.11719h-.1211zm0 0"/><use x="119.04" y="360.48" xlink:href="#b"/><use x="126.685" y="360.48" xlink:href="#e"/><use x="135.936" y="360.48" xlink:href="#f"/><use x="143.581" y="360.48" xlink:href="#b"/><use x="151.226" y="360.48" xlink:href="#f"/><use x="158.871" y="360.48" xlink:href="#g"/><use x="113.88" y="342.84" xlink:href="#h"/><use x="122.973" y="342.84" xlink:href="#b"/><path fill="none" stroke="#000" stroke-linecap="round" stroke-linejoin="round" stroke-miterlimit="10" stroke-width=".375" d="M201 360.96094h16.67969"/><path d="M217.67969 360.96094h.1211v.11719h-.1211zm0 0"/><path fill="none" stroke="#000" stroke-linecap="round" stroke-linejoin="round" stroke-miterlimit="10" stroke-width=".375" d="M201 348.48047h16.67969"/><path d="M217.67969 348.48047h.1211v.1211h-.1211zm0 0"/><path fill="none" stroke="#000" stroke-linecap="round" stroke-linejoin="round" stroke-miterlimit="10" stroke-width=".375" d="M217.67969 348.48047l-8.28125 12.48047"/><path d="M209.39844 360.96094h.1211v.11719h-.1211zm0 0"/><path fill="none" stroke="#000" stroke-linecap="round" stroke-linejoin="round" stroke-miterlimit="10" stroke-width=".375" d="M201 348.48047l8.39844 12.48047"/><path d="M209.39844 360.96094h.1211v.11719h-.1211zm0 0"/><path fill="none" stroke="#000" stroke-linecap="round" stroke-linejoin="round" stroke-miterlimit="10" stroke-width=".375" d="M209.39844 338.03906v10.4414"/><path d="M209.39844 348.48047h.1211v.1211h-.1211zm0 0"/><path fill="none" stroke="#000" stroke-linecap="round" stroke-linejoin="round" stroke-miterlimit="10" stroke-width=".375" d="M209.39844 360.96094v10.32031"/><path d="M209.39844 371.28125h.1211v.11719h-.1211zm0 0"/><use x="219.24" y="360" xlink:href="#b"/><use x="226.885" y="360" xlink:href="#e"/><use x="236.136" y="360" xlink:href="#f"/><use x="243.781" y="360" xlink:href="#b"/><use x="251.426" y="360" xlink:href="#f"/><use x="259.071" y="360" xlink:href="#g"/><use x="213.48" y="342.84" xlink:href="#h"/><use x="222.573" y="342.84" xlink:href="#i"/><path fill="none" stroke="#000" stroke-linecap="round" stroke-linejoin="round" stroke-miterlimit="10" stroke-width=".375" d="M292.4414 360.96094H309"/><path d="M309 360.96094h.1211v.11719H309zm0 0"/><path fill="none" stroke="#000" stroke-linecap="round" stroke-linejoin="round" stroke-miterlimit="10" stroke-width=".375" d="M292.4414 348.48047H309"/><path d="M309 348.48047h.1211v.1211H309zm0 0"/><path fill="none" stroke="#000" stroke-linecap="round" stroke-linejoin="round" stroke-miterlimit="10" stroke-width=".375" d="M309 348.48047l-8.28125 12.48047"/><path d="M300.71875 360.96094h.1211v.11719h-.1211zm0 0"/><path fill="none" stroke="#000" stroke-linecap="round" stroke-linejoin="round" stroke-miterlimit="10" stroke-width=".375" d="M292.4414 348.48047l8.27735 12.48047"/><path d="M300.71875 360.96094h.1211v.11719h-.1211zm0 0"/><path fill="none" stroke="#000" stroke-linecap="round" stroke-linejoin="round" stroke-miterlimit="10" stroke-width=".375" d="M300.71875 338.03906v10.4414"/><path d="M300.71875 348.48047h.1211v.1211h-.1211zm0 0"/><path fill="none" stroke="#000" stroke-linecap="round" stroke-linejoin="round" stroke-miterlimit="10" stroke-width=".375" d="M300.71875 360.96094v10.32031"/><path d="M300.71875 371.28125h.1211v.11719h-.1211zm0 0"/><use x="311.16" y="361.08" xlink:href="#b"/><use x="318.805" y="361.08" xlink:href="#e"/><use x="328.056" y="361.08" xlink:href="#f"/><use x="335.701" y="361.08" xlink:href="#b"/><use x="343.346" y="361.08" xlink:href="#f"/><use x="350.991" y="361.08" xlink:href="#g"/><use x="304.92" y="342.84" xlink:href="#h"/><use x="314.013" y="342.84" xlink:href="#j"/><path fill="none" stroke="#000" stroke-linecap="round" stroke-linejoin="round" stroke-miterlimit="10" stroke-width=".375" d="M113.8789 302.76172h-8.39843"/><path d="M105.48047 302.76172h.1211v.11719h-.1211zm0 0"/><path fill="none" stroke="#000" stroke-linecap="round" stroke-linejoin="round" stroke-miterlimit="10" stroke-width=".375" d="M113.8789 282h-8.39843"/><path d="M105.48047 282h.1211v.1211h-.1211zm0 0"/><path fill="none" stroke="#000" stroke-linecap="round" stroke-linejoin="round" stroke-miterlimit="10" stroke-width=".375" d="M109.67969 306.96094v-8.40235"/><path d="M109.67969 298.5586h.1211v.12109h-.1211zm0 0"/><path fill="none" stroke="#000" stroke-linecap="round" stroke-linejoin="round" stroke-miterlimit="10" stroke-width=".375" d="M109.67969 271.5586v4.20312"/><path d="M109.67969 275.76172h.1211v.11719h-.1211zm0 0"/><path fill="none" stroke="#000" stroke-linecap="round" stroke-linejoin="round" stroke-miterlimit="10" stroke-width=".375" d="M109.67969 313.19922V309"/><path d="M109.67969 309h.1211v.1211h-.1211zm0 0"/><path fill="none" stroke="#000" stroke-linecap="round" stroke-linejoin="round" stroke-miterlimit="10" stroke-width=".375" d="M126.1211 292.3203c0-9.14453-7.38282-16.55859-16.5-16.55859-9.1211 0-16.5 7.41406-16.5 16.5586 0 9.14062 7.3789 16.55859 16.5 16.55859 9.11718 0 16.5-7.41797 16.5-16.5586zm0 0"/><use x="75.24" y="262.92" xlink:href="#k"/><use x="82.111" y="262.92" xlink:href="#l"/><use x="89.498" y="262.92" xlink:href="#h"/><use x="98.591" y="262.92" xlink:href="#m"/><use x="106.236" y="262.92" xlink:href="#h"/><use x="115.329" y="262.92" xlink:href="#a"/><use x="124.047" y="262.92" xlink:href="#n"/><use x="132.091" y="262.92" xlink:href="#m"/><use x="139.736" y="262.92" xlink:href="#b"/><use x="89.52" y="318" xlink:href="#o"/><path fill="none" stroke="#000" stroke-linecap="round" stroke-linejoin="round" stroke-miterlimit="10" stroke-width=".375" d="M213.48047 302.76172h-8.28125"/><path d="M205.19922 302.76172h.1211v.11719h-.1211zm0 0"/><path fill="none" stroke="#000" stroke-linecap="round" stroke-linejoin="round" stroke-miterlimit="10" stroke-width=".375" d="M213.48047 282h-8.28125"/><path d="M205.19922 282h.1211v.1211h-.1211zm0 0"/><path fill="none" stroke="#000" stroke-linecap="round" stroke-linejoin="round" stroke-miterlimit="10" stroke-width=".375" d="M209.39844 306.96094v-8.40235"/><path d="M209.39844 298.5586h.1211v.12109h-.1211zm0 0"/><path fill="none" stroke="#000" stroke-linecap="round" stroke-linejoin="round" stroke-miterlimit="10" stroke-width=".375" d="M209.39844 271.5586v4.20312"/><path d="M209.39844 275.76172h.1211v.11719h-.1211zm0 0"/><path fill="none" stroke="#000" stroke-linecap="round" stroke-linejoin="round" stroke-miterlimit="10" stroke-width=".375" d="M209.39844 313.19922V309"/><path d="M209.39844 309h.1211v.1211h-.1211zm0 0"/><path fill="none" stroke="#000" stroke-linecap="round" stroke-linejoin="round" stroke-miterlimit="10" stroke-width=".375" d="M225.83985 292.3203c0-9.14453-7.41016-16.55859-16.5586-16.55859-9.15234 0-16.5625 7.41406-16.5625 16.5586 0 9.14062 7.41016 16.55859 16.5625 16.55859 9.14844 0 16.5586-7.41797 16.5586-16.5586zm0 0"/><use x="174.96" y="262.92" xlink:href="#k"/><use x="181.831" y="262.92" xlink:href="#l"/><use x="189.218" y="262.92" xlink:href="#h"/><use x="198.311" y="262.92" xlink:href="#m"/><use x="205.956" y="262.92" xlink:href="#h"/><use x="215.049" y="262.92" xlink:href="#a"/><use x="223.767" y="262.92" xlink:href="#n"/><use x="231.811" y="262.92" xlink:href="#m"/><use x="239.456" y="262.92" xlink:href="#i"/><use x="189.24" y="318" xlink:href="#o"/><path fill="none" stroke="#000" stroke-linecap="round" stroke-linejoin="round" stroke-miterlimit="10" stroke-width=".375" d="M304.92188 302.76172h-8.28126"/><path d="M296.64063 302.76172h.12109v.11719h-.1211zm0 0"/><path fill="none" stroke="#000" stroke-linecap="round" stroke-linejoin="round" stroke-miterlimit="10" stroke-width=".375" d="M304.92188 282h-8.28126"/><path d="M296.64063 282h.12109v.1211h-.1211zm0 0"/><path fill="none" stroke="#000" stroke-linecap="round" stroke-linejoin="round" stroke-miterlimit="10" stroke-width=".375" d="M300.71875 306.96094v-8.40235"/><path d="M300.71875 298.5586h.1211v.12109h-.1211zm0 0"/><path fill="none" stroke="#000" stroke-linecap="round" stroke-linejoin="round" stroke-miterlimit="10" stroke-width=".375" d="M300.71875 271.5586v4.20312"/><path d="M300.71875 275.76172h.1211v.11719h-.1211zm0 0"/><path fill="none" stroke="#000" stroke-linecap="round" stroke-linejoin="round" stroke-miterlimit="10" stroke-width=".375" d="M300.71875 313.19922V309"/><path d="M300.71875 309h.1211v.1211h-.1211zm0 0"/><path fill="none" stroke="#000" stroke-linecap="round" stroke-linejoin="round" stroke-miterlimit="10" stroke-width=".375" d="M317.28124 292.3203c0-9.14453-7.41015-16.55859-16.5625-16.55859-9.14843 0-16.5586 7.41406-16.5586 16.5586 0 9.14062 7.41017 16.55859 16.5586 16.55859 9.15235 0 16.5625-7.41797 16.5625-16.5586zm0 0"/><use x="266.28" y="262.92" xlink:href="#k"/><use x="273.151" y="262.92" xlink:href="#l"/><use x="280.538" y="262.92" xlink:href="#h"/><use x="289.631" y="262.92" xlink:href="#m"/><use x="297.276" y="262.92" xlink:href="#h"/><use x="306.369" y="262.92" xlink:href="#a"/><use x="315.087" y="262.92" xlink:href="#n"/><use x="323.131" y="262.92" xlink:href="#m"/><use x="330.776" y="262.92" xlink:href="#j"/><use x="280.56" y="318" xlink:href="#o"/><path fill="none" stroke="#000" stroke-linecap="round" stroke-linejoin="round" stroke-miterlimit="10" stroke-width=".375" d="M390 419.03906l-4.07813 4.19922"/><path d="M385.92188 423.23828h.11718v.1211h-.11719zm0 0"/><path fill="none" stroke="#000" stroke-linecap="round" stroke-linejoin="round" stroke-miterlimit="10" stroke-width=".375" d="M400.4414 429.48047L390 419.03907"/><path d="M390 419.03906h.1211v.1211H390zm0 0"/><path fill="none" stroke="#000" stroke-linecap="round" stroke-linejoin="round" stroke-miterlimit="10" stroke-width=".375" d="M400.4414 429.48047l-14.51952-6.24219"/><path d="M385.92188 423.23828h.11718v.1211h-.11719zm0 0"/><path fill="none" stroke="#000" stroke-linecap="round" stroke-linejoin="round" stroke-miterlimit="10" stroke-width=".375" d="M387.96094 421.19922l-12.48047-8.39844"/><path d="M375.48047 412.80078h.1211v.1211h-.1211zm0 0"/><path fill="none" stroke="#000" stroke-linecap="round" stroke-linejoin="round" stroke-miterlimit="10" stroke-width=".375" d="M375.48047 421.19922v-33.23828"/><path d="M375.48047 387.96094h.1211v.11719h-.1211zm0 0"/><path fill="none" stroke="#000" stroke-linecap="round" stroke-linejoin="round" stroke-miterlimit="10" stroke-width=".375" d="M375.48047 396.23828l24.96094-16.67969"/><path d="M400.4414 379.5586h.1172v.12109h-.1172zm0 0"/><path fill="none" stroke="#000" stroke-linecap="round" stroke-linejoin="round" stroke-miterlimit="10" stroke-width=".375" d="M375.48047 404.51953h-8.28125"/><path d="M367.19922 404.51953h.1211v.1211h-.1211zm0 0"/><use x="396.24" y="401.04" xlink:href="#p"/><use x="405.485" y="401.04" xlink:href="#b"/><use x="396.24" y="419.76" xlink:href="#i"/><use x="403.885" y="419.76" xlink:href="#e"/><use x="413.136" y="419.76" xlink:href="#i"/><use x="420.781" y="419.76" xlink:href="#i"/><use x="428.426" y="419.76" xlink:href="#i"/><use x="436.071" y="419.76" xlink:href="#i"/><path fill="none" stroke="#000" stroke-linecap="round" stroke-linejoin="round" stroke-miterlimit="10" stroke-width=".375" d="M400.4414 483.48047v4.07812"/><path d="M400.4414 487.5586h.1172v.12109h-.1172zm0 0"/><path fill="none" stroke="#000" stroke-linecap="round" stroke-linejoin="round" stroke-miterlimit="10" stroke-width=".375" d="M392.16016 479.28125l8.28125 4.19922"/><path d="M400.4414 483.48047h.1172v.1211h-.1172zm0 0"/><path fill="none" stroke="#000" stroke-linecap="round" stroke-linejoin="round" stroke-miterlimit="10" stroke-width=".375" d="M408.71875 471l-16.5586 8.28125"/><path d="M392.16016 479.28125h.12109v.11719h-.1211zm0 0"/><path fill="none" stroke="#000" stroke-linecap="round" stroke-linejoin="round" stroke-miterlimit="10" stroke-width=".375" d="M392.16016 462.71875L408.71875 471"/><path d="M408.71875 471h.1211v.1211h-.1211zm0 0"/><path fill="none" stroke="#000" stroke-linecap="round" stroke-linejoin="round" stroke-miterlimit="10" stroke-width=".375" d="M408.71875 454.4414l-16.5586 8.27735"/><path d="M392.16016 462.71875h.12109v.1211h-.1211zm0 0"/><path fill="none" stroke="#000" stroke-linecap="round" stroke-linejoin="round" stroke-miterlimit="10" stroke-width=".375" d="M400.4414 446.03906v4.19922"/><path d="M400.4414 450.23828h.1172v.1211h-.1172zm0 0"/><path fill="none" stroke="#000" stroke-linecap="round" stroke-linejoin="round" stroke-miterlimit="10" stroke-width=".375" d="M400.4414 450.23828l8.27735 4.20313"/><path d="M408.71875 454.4414h.1211v.1172h-.1211zm0 0"/><use x="410.88" y="463.32" xlink:href="#a"/><use x="419.598" y="463.32" xlink:href="#i"/><use x="410.88" y="482.04" xlink:href="#b"/><use x="418.525" y="482.04" xlink:href="#d"/><path fill="none" stroke="#000" stroke-linecap="round" stroke-linejoin="round" stroke-miterlimit="10" stroke-width=".375" d="M458.64062 346.4414l14.51954 6.1172"/><path d="M473.16016 352.5586h.12109v.12109h-.1211zm0 0"/><path fill="none" stroke="#000" stroke-linecap="round" stroke-linejoin="round" stroke-miterlimit="10" stroke-width=".375" d="M473.16016 352.5586l-4.19922 4.20312"/><path d="M468.96094 356.76172h.11719v.11719h-.1172zm0 0"/><path fill="none" stroke="#000" stroke-linecap="round" stroke-linejoin="round" stroke-miterlimit="10" stroke-width=".375" d="M458.64062 346.4414l10.32032 10.32032"/><path d="M468.96094 356.76172h.11719v.11719h-.1172zm0 0"/><path fill="none" stroke="#000" stroke-linecap="round" stroke-linejoin="round" stroke-miterlimit="10" stroke-width=".375" d="M471 354.71875L483.48047 363"/><path d="M483.48047 363h.1211v.1211h-.1211zm0 0"/><path fill="none" stroke="#000" stroke-linecap="round" stroke-linejoin="round" stroke-miterlimit="10" stroke-width=".375" d="M458.64062 354.71875v-33.23828"/><path d="M458.64063 321.48047h.12109v.1211h-.1211zm0 0"/><path fill="none" stroke="#000" stroke-linecap="round" stroke-linejoin="round" stroke-miterlimit="10" stroke-width=".375" d="M458.64062 329.76172l24.83985-16.5625"/><path d="M483.48047 313.19922h.1211v.1211h-.1211zm0 0"/><path fill="none" stroke="#000" stroke-linecap="round" stroke-linejoin="round" stroke-miterlimit="10" stroke-width=".375" d="M458.64062 338.03906h-8.40234"/><path d="M450.23828 338.03906h.1211v.1211h-.1211zm0 0"/><use x="493.92" y="334.56" xlink:href="#p"/><use x="503.165" y="334.56" xlink:href="#i"/><use x="493.92" y="353.28" xlink:href="#q"/><use x="502.157" y="353.28" xlink:href="#r"/><use x="510.171" y="353.28" xlink:href="#j"/><use x="517.816" y="353.28" xlink:href="#i"/><use x="525.461" y="353.28" xlink:href="#s"/><use x="533.266" y="353.28" xlink:href="#t"/><use x="538.442" y="353.28" xlink:href="#i"/><use x="546.007" y="353.28" xlink:href="#o"/><path fill="none" stroke="#000" stroke-linecap="round" stroke-linejoin="round" stroke-miterlimit="10" stroke-width=".375" d="M479.39844 414.96094h8.28125"/><path d="M487.67969 414.96094h.1211v.11719h-.1211zm0 0"/><path fill="none" stroke="#000" stroke-linecap="round" stroke-linejoin="round" stroke-miterlimit="10" stroke-width=".375" d="M479.39844 435.71875h8.28125"/><path d="M487.67969 435.71875h.1211v.1211h-.1211zm0 0"/><path fill="none" stroke="#000" stroke-linecap="round" stroke-linejoin="round" stroke-miterlimit="10" stroke-width=".375" d="M483.48047 410.76172v8.27734"/><path d="M483.48047 419.03906h.1211v.1211h-.1211zm0 0"/><path fill="none" stroke="#000" stroke-linecap="round" stroke-linejoin="round" stroke-miterlimit="10" stroke-width=".375" d="M483.48047 446.03906v-4.07812"/><path d="M483.48047 441.96094h.1211v.11719h-.1211zm0 0"/><path fill="none" stroke="#000" stroke-linecap="round" stroke-linejoin="round" stroke-miterlimit="10" stroke-width=".375" d="M483.48047 404.51953v4.19922"/><path d="M483.48047 408.71875h.1211v.1211h-.1211zm0 0"/><path fill="none" stroke="#000" stroke-linecap="round" stroke-linejoin="round" stroke-miterlimit="10" stroke-width=".375" d="M500.03908 425.28127c0-9.14454-7.41015-16.5625-16.55859-16.5625-9.15234 0-16.5586 7.41796-16.5586 16.5625 0 9.14062 7.40626 16.55859 16.5586 16.55859 9.14844 0 16.5586-7.41797 16.5586-16.5586zm0 0"/><use x="495.96" y="409.32" xlink:href="#u"/><use x="503.851" y="409.32" xlink:href="#v"/><use x="511.455" y="409.32" xlink:href="#w"/><use x="495.96" y="450.84" xlink:href="#o"/><path fill="none" stroke="#000" stroke-linecap="round" stroke-linejoin="round" stroke-miterlimit="10" stroke-width=".375" d="M483.48047 284.03906v4.19922"/><path d="M483.48047 288.23828h.1211v.1211h-.1211zm0 0"/><path fill="none" stroke="#000" stroke-linecap="round" stroke-linejoin="round" stroke-miterlimit="10" stroke-width=".375" d="M475.19922 279.96094l8.28125 4.07812"/><path d="M483.48047 284.03906h.1211v.1211h-.1211zm0 0"/><path fill="none" stroke="#000" stroke-linecap="round" stroke-linejoin="round" stroke-miterlimit="10" stroke-width=".375" d="M491.8789 271.5586l-16.67968 8.40234"/><path d="M475.19922 279.96094h.1211v.11719h-.1211zm0 0"/><path fill="none" stroke="#000" stroke-linecap="round" stroke-linejoin="round" stroke-miterlimit="10" stroke-width=".375" d="M475.19922 263.28125l16.67969 8.27734"/><path d="M491.8789 271.5586H492v.12109h-.1211zm0 0"/><path fill="none" stroke="#000" stroke-linecap="round" stroke-linejoin="round" stroke-miterlimit="10" stroke-width=".375" d="M491.8789 255l-16.67968 8.28125"/><path d="M475.19922 263.28125h.1211v.11719h-.1211zm0 0"/><path fill="none" stroke="#000" stroke-linecap="round" stroke-linejoin="round" stroke-miterlimit="10" stroke-width=".375" d="M483.48047 246.71875v4.08203"/><path d="M483.48047 250.80078h.1211v.1211h-.1211zm0 0"/><path fill="none" stroke="#000" stroke-linecap="round" stroke-linejoin="round" stroke-miterlimit="10" stroke-width=".375" d="M483.48047 250.80078L491.8789 255"/><path d="M491.8789 255H492v.1211h-.1211zm0 0"/><use x="493.92" y="264" xlink:href="#x"/><use x="503.045" y="264" xlink:href="#h"/><use x="512.138" y="264" xlink:href="#y"/><use x="522.861" y="264" xlink:href="#z"/><use x="528.504" y="264" xlink:href="#m"/><use x="536.149" y="264" xlink:href="#A"/><use x="545.514" y="264" xlink:href="#w"/><use x="554.385" y="264" xlink:href="#B"/><use x="493.92" y="282.6" xlink:href="#b"/><use x="501.565" y="282.6" xlink:href="#c"/><path fill="none" stroke="#000" stroke-linecap="round" stroke-linejoin="round" stroke-miterlimit="10" stroke-width=".375" d="M50.51953 288.23828H69.1211"/><path d="M69.1211 288.23828h.11718v.1211h-.11719zm0 0"/><path fill="none" stroke="#000" stroke-linecap="round" stroke-linejoin="round" stroke-miterlimit="10" stroke-width=".375" d="M69.1211 288.23828l-9.2422 9.36328"/><path d="M59.8789 297.60156H60v.11719h-.1211zm0 0"/><path fill="none" stroke="#000" stroke-linecap="round" stroke-linejoin="round" stroke-miterlimit="10" stroke-width=".375" d="M59.8789 297.60156l-9.35937-9.36328"/><path d="M50.51953 288.23828h.1211v.1211h-.1211zm0 0"/><path fill="none" stroke="#000" stroke-linecap="round" stroke-linejoin="round" stroke-miterlimit="10" stroke-width=".375" d="M424.32031 263.28125h18.71875"/><path d="M443.03906 263.28125h.1211v.11719h-.1211zm0 0"/><path fill="none" stroke="#000" stroke-linecap="round" stroke-linejoin="round" stroke-miterlimit="10" stroke-width=".375" d="M443.03906 263.28125l-9.35937 9.35937"/><path d="M433.67969 272.64063h.1211v.12109h-.1211zm0 0"/><path fill="none" stroke="#000" stroke-linecap="round" stroke-linejoin="round" stroke-miterlimit="10" stroke-width=".375" d="M433.67969 272.64062l-9.35938-9.35937"/><path d="M424.32031 263.28125h.1211v.11719h-.1211zm0 0"/><path fill="none" stroke="#000" stroke-linecap="round" stroke-linejoin="round" stroke-miterlimit="10" stroke-width=".375" d="M349.5586 520.80078h18.72265"/><path d="M368.28125 520.80078h.11719v.1211h-.11719zm0 0"/><path fill="none" stroke="#000" stroke-linecap="round" stroke-linejoin="round" stroke-miterlimit="10" stroke-width=".375" d="M368.28125 520.80078l-9.35937 9.35938"/><path d="M358.92188 530.16016h.11718v.12109h-.11719zm0 0"/><path fill="none" stroke="#000" stroke-linecap="round" stroke-linejoin="round" stroke-miterlimit="10" stroke-width=".375" d="M358.92188 530.16016l-9.36329-9.35938"/><path d="M349.5586 520.80078h.12109v.1211h-.1211zm0 0"/><use x="51.48" y="534" xlink:href="#C"/><use x="55.232" y="534" xlink:href="#D"/><use x="60.221" y="534" xlink:href="#E"/><use x="65.427" y="534" xlink:href="#F"/><use x="72.615" y="534" xlink:href="#G"/><use x="83.663" y="534" xlink:href="#c"/><use x="94.91" y="534" xlink:href="#j"/><use x="102.474" y="534" xlink:href="#c"/><use x="113.721" y="534" xlink:href="#b"/><use x="124.883" y="534" xlink:href="#c"/><use x="132.448" y="534" xlink:href="#C"/><use x="136.2" y="534" xlink:href="#c"/><use x="143.845" y="534" xlink:href="#c"/><use x="151.49" y="534" xlink:href="#b"/><path fill="none" stroke="#000" stroke-linecap="round" stroke-linejoin="round" stroke-miterlimit="10" stroke-width=".375" d="M483.48047 246.71875h-49.80078"/><path d="M433.67969 246.71875h.1211v.1211h-.1211zm0 0"/><path fill="none" stroke="#000" stroke-linecap="round" stroke-linejoin="round" stroke-miterlimit="10" stroke-width=".375" d="M433.67969 263.28125v-16.5625"/><path d="M433.67969 246.71875h.1211v.1211h-.1211zm0 0"/><path fill="none" stroke="#000" stroke-linecap="round" stroke-linejoin="round" stroke-miterlimit="10" stroke-width=".375" d="M109.67969 271.5586H59.8789"/><path d="M59.8789 271.5586H60v.12109h-.1211zm0 0"/><path fill="none" stroke="#000" stroke-linecap="round" stroke-linejoin="round" stroke-miterlimit="10" stroke-width=".375" d="M209.39844 271.5586h-99.71875"/><path d="M109.67969 271.5586h.1211v.12109h-.1211zm0 0"/><path fill="none" stroke="#000" stroke-linecap="round" stroke-linejoin="round" stroke-miterlimit="10" stroke-width=".375" d="M300.71875 271.5586h-91.32031"/><path d="M209.39844 271.5586h.1211v.12109h-.1211zm0 0"/><path fill="none" stroke="#000" stroke-linecap="round" stroke-linejoin="round" stroke-miterlimit="10" stroke-width=".375" d="M59.8789 288.23828V271.5586"/><path d="M59.8789 271.5586H60v.12109h-.1211zm0 0"/><path fill="none" stroke="#000" stroke-linecap="round" stroke-linejoin="round" stroke-miterlimit="10" stroke-width=".375" d="M483.48047 313.19922v-24.96094"/><path d="M483.48047 288.23828h.1211v.1211h-.1211zm0 0"/><path fill="none" stroke="#000" stroke-linecap="round" stroke-linejoin="round" stroke-miterlimit="10" stroke-width=".375" d="M109.67969 338.03906v-24.83984"/><path d="M109.67969 313.19922h.1211v.1211h-.1211zm0 0"/><path fill="none" stroke="#000" stroke-linecap="round" stroke-linejoin="round" stroke-miterlimit="10" stroke-width=".375" d="M209.39844 338.03906v-24.83984"/><path d="M209.39844 313.19922h.1211v.1211h-.1211zm0 0"/><path fill="none" stroke="#000" stroke-linecap="round" stroke-linejoin="round" stroke-miterlimit="10" stroke-width=".375" d="M300.71875 338.03906v-24.83984"/><path d="M300.71875 313.19922h.1211v.1211h-.1211zm0 0"/><path fill="none" stroke="#000" stroke-linecap="round" stroke-linejoin="round" stroke-miterlimit="10" stroke-width=".375" d="M450.23828 338.03906h-49.79687"/><path d="M400.4414 338.03906h.1172v.1211h-.1172zm0 0"/><path fill="none" stroke="#000" stroke-linecap="round" stroke-linejoin="round" stroke-miterlimit="10" stroke-width=".375" d="M209.39844 371.28125h-99.71875"/><path d="M109.67969 371.28125h.1211v.11719h-.1211zm0 0"/><path fill="none" stroke="#000" stroke-linecap="round" stroke-linejoin="round" stroke-miterlimit="10" stroke-width=".375" d="M300.71875 371.28125h-91.32031"/><path d="M209.39844 371.28125h.1211v.11719h-.1211zm0 0"/><path fill="none" stroke="#000" stroke-linecap="round" stroke-linejoin="round" stroke-miterlimit="10" stroke-width=".375" d="M400.4414 379.5586v-41.51954"/><path d="M400.4414 338.03906h.1172v.1211h-.1172zm0 0"/><path fill="none" stroke="#000" stroke-linecap="round" stroke-linejoin="round" stroke-miterlimit="10" stroke-width=".375" d="M209.39844 404.51953v-33.23828"/><path d="M209.39844 371.28125h.1211v.11719h-.1211zm0 0"/><path fill="none" stroke="#000" stroke-linecap="round" stroke-linejoin="round" stroke-miterlimit="10" stroke-width=".375" d="M367.19922 404.51953H209.39844"/><path d="M209.39844 404.51953h.1211v.1211h-.1211zm0 0"/><path fill="none" stroke="#000" stroke-linecap="round" stroke-linejoin="round" stroke-miterlimit="10" stroke-width=".375" d="M483.48047 404.51953V363"/><path d="M483.48047 363h.1211v.1211h-.1211zm0 0"/><path fill="none" stroke="#000" stroke-linecap="round" stroke-linejoin="round" stroke-miterlimit="10" stroke-width=".375" d="M209.39844 446.03906v-41.51953"/><path d="M209.39844 404.51953h.1211v.1211h-.1211zm0 0"/><path fill="none" stroke="#000" stroke-linecap="round" stroke-linejoin="round" stroke-miterlimit="10" stroke-width=".375" d="M400.4414 446.03906v-16.5586"/><path d="M400.4414 429.48047h.1172v.1211h-.1172zm0 0"/><path fill="none" stroke="#000" stroke-linecap="round" stroke-linejoin="round" stroke-miterlimit="10" stroke-width=".375" d="M209.39844 504.23828V487.5586"/><path d="M209.39844 487.5586h.1211v.12109h-.1211zm0 0"/><path fill="none" stroke="#000" stroke-linecap="round" stroke-linejoin="round" stroke-miterlimit="10" stroke-width=".375" d="M358.92188 504.23828H209.39844"/><path d="M209.39844 504.23828h.1211v.1211h-.1211zm0 0"/><path fill="none" stroke="#000" stroke-linecap="round" stroke-linejoin="round" stroke-miterlimit="10" stroke-width=".375" d="M400.4414 504.23828V487.5586"/><path d="M400.4414 487.5586h.1172v.12109h-.1172zm0 0"/><path fill="none" stroke="#000" stroke-linecap="round" stroke-linejoin="round" stroke-miterlimit="10" stroke-width=".375" d="M400.4414 504.23828h-41.51952"/><path d="M358.92188 504.23828h.11718v.1211h-.11719zm0 0"/><path fill="none" stroke="#000" stroke-linecap="round" stroke-linejoin="round" stroke-miterlimit="10" stroke-width=".375" d="M483.48047 504.23828v-58.19922"/><path d="M483.48047 446.03906h.1211v.1211h-.1211zm0 0"/><path fill="none" stroke="#000" stroke-linecap="round" stroke-linejoin="round" stroke-miterlimit="10" stroke-width=".375" d="M483.48047 504.23828H400.4414"/><path d="M400.4414 504.23828h.1172v.1211h-.1172zm0 0"/><path fill="none" stroke="#000" stroke-linecap="round" stroke-linejoin="round" stroke-miterlimit="10" stroke-width=".375" d="M358.92188 520.80078v-16.5625"/><path fill-rule="evenodd" d="M358.92188 504.23828h.11718v.1211h-.11719zM107.64063 269.51953h4.19921v4.19922h-4.19921zm99.71874 0h4.19922v4.19922h-4.19922zm0 99.71875h4.19922v4.20313h-4.19922zm0 33.24219h4.19922v4.19922h-4.19922zm0 0"/><path fill-rule="evenodd" d="M356.8789 502.19922h4.19923v4.19922h-4.19922zm41.51954 0h4.20312v4.19922h-4.20312zm0 0"/></svg>